<svg width="32" height="32" viewBox="0 0 32 32" fill="none" xmlns="http://www.w3.org/2000/svg">
<g filter="url(#filter0_d_20_109)">
<path fill-rule="evenodd" clip-rule="evenodd" d="M11.0527 0.072C12.3324 0.0130909 12.7404 0 16 0C19.2596 0 19.6676 0.0141818 20.9462 0.072C22.2247 0.129818 23.0975 0.333818 23.8611 0.629455C24.6607 0.931636 25.3862 1.404 25.9862 2.01491C26.5971 2.61382 27.0684 3.33818 27.3695 4.13891C27.6662 4.90255 27.8691 5.77527 27.928 7.05164C27.9869 8.33345 28 8.74145 28 12C28 15.2596 27.9858 15.6676 27.928 16.9473C27.8702 18.2236 27.6662 19.0964 27.3695 19.86C27.0684 20.6608 26.5963 21.3864 25.9862 21.9862C25.3862 22.5971 24.6607 23.0684 23.8611 23.3695C23.0975 23.6662 22.2247 23.8691 20.9484 23.928C19.6676 23.9869 19.2596 24 16 24C12.7404 24 12.3324 23.9858 11.0527 23.928C9.77636 23.8702 8.90364 23.6662 8.14 23.3695C7.33919 23.0683 6.61362 22.5963 6.01382 21.9862C5.40332 21.3869 4.93089 20.6617 4.62945 19.8611C4.33382 19.0975 4.13091 18.2247 4.072 16.9484C4.01309 15.6665 4 15.2585 4 12C4 8.74036 4.01418 8.33236 4.072 7.05382C4.12982 5.77527 4.33382 4.90255 4.62945 4.13891C4.93133 3.33827 5.40413 2.61307 6.01491 2.01382C6.61386 1.40346 7.3387 0.931029 8.13891 0.629455C8.90255 0.333818 9.77527 0.130909 11.0516 0.072H11.0527ZM20.8491 2.232C19.5836 2.17418 19.204 2.16218 16 2.16218C12.796 2.16218 12.4164 2.17418 11.1509 2.232C9.98036 2.28545 9.34545 2.48073 8.92218 2.64545C8.36255 2.86364 7.96218 3.12218 7.54218 3.54218C7.14405 3.92951 6.83765 4.40104 6.64545 4.92218C6.48073 5.34545 6.28545 5.98036 6.232 7.15091C6.17418 8.41636 6.16218 8.796 6.16218 12C6.16218 15.204 6.17418 15.5836 6.232 16.8491C6.28545 18.0196 6.48073 18.6545 6.64545 19.0778C6.83745 19.5982 7.144 20.0705 7.54218 20.4578C7.92945 20.856 8.40182 21.1625 8.92218 21.3545C9.34545 21.5193 9.98036 21.7145 11.1509 21.768C12.4164 21.8258 12.7949 21.8378 16 21.8378C19.2051 21.8378 19.5836 21.8258 20.8491 21.768C22.0196 21.7145 22.6545 21.5193 23.0778 21.3545C23.6375 21.1364 24.0378 20.8778 24.4578 20.4578C24.856 20.0705 25.1625 19.5982 25.3545 19.0778C25.5193 18.6545 25.7145 18.0196 25.768 16.8491C25.8258 15.5836 25.8378 15.204 25.8378 12C25.8378 8.796 25.8258 8.41636 25.768 7.15091C25.7145 5.98036 25.5193 5.34545 25.3545 4.92218C25.1364 4.36255 24.8778 3.96218 24.4578 3.54218C24.0705 3.14408 23.5989 2.83768 23.0778 2.64545C22.6545 2.48073 22.0196 2.28545 20.8491 2.232V2.232ZM14.4673 15.6993C15.3233 16.0556 16.2764 16.1037 17.1639 15.8353C18.0514 15.567 18.8182 14.9988 19.3334 14.2279C19.8485 13.457 20.0801 12.5311 19.9884 11.6085C19.8968 10.6858 19.4876 9.82361 18.8309 9.16909C18.4123 8.7507 17.9061 8.43034 17.3487 8.23107C16.7914 8.0318 16.1968 7.95858 15.6078 8.01667C15.0188 8.07477 14.45 8.26274 13.9423 8.56705C13.4347 8.87136 13.0008 9.28445 12.672 9.77657C12.3431 10.2687 12.1275 10.8276 12.0406 11.413C11.9536 11.9985 11.9976 12.596 12.1693 13.1624C12.341 13.7288 12.6362 14.2501 13.0335 14.6888C13.4309 15.1275 13.9205 15.4726 14.4673 15.6993ZM11.6385 7.63855C12.2113 7.06579 12.8913 6.61146 13.6396 6.30149C14.3879 5.99151 15.19 5.83197 16 5.83197C16.81 5.83197 17.6121 5.99151 18.3604 6.30149C19.1087 6.61146 19.7887 7.06579 20.3615 7.63855C20.9342 8.2113 21.3885 8.89126 21.6985 9.6396C22.0085 10.3879 22.168 11.19 22.168 12C22.168 12.81 22.0085 13.6121 21.6985 14.3604C21.3885 15.1087 20.9342 15.7887 20.3615 16.3615C19.2047 17.5182 17.6359 18.168 16 18.168C14.3641 18.168 12.7953 17.5182 11.6385 16.3615C10.4818 15.2047 9.83197 13.6359 9.83197 12C9.83197 10.3641 10.4818 8.79528 11.6385 7.63855V7.63855ZM23.536 6.75055C23.6779 6.61666 23.7916 6.45565 23.8701 6.27706C23.9487 6.09847 23.9907 5.90593 23.9935 5.71083C23.9964 5.51574 23.9601 5.32205 23.8867 5.14125C23.8134 4.96044 23.7045 4.79619 23.5665 4.65822C23.4285 4.52026 23.2643 4.41137 23.0835 4.33802C22.9027 4.26467 22.709 4.22834 22.5139 4.23118C22.3188 4.23403 22.1263 4.27599 21.9477 4.35458C21.7691 4.43317 21.6081 4.5468 21.4742 4.68873C21.2138 4.96476 21.0712 5.33141 21.0768 5.71083C21.0823 6.09026 21.2355 6.4526 21.5038 6.72092C21.7721 6.98924 22.1345 7.14243 22.5139 7.14796C22.8933 7.15349 23.26 7.01093 23.536 6.75055V6.75055Z" fill="white"/>
</g>
<defs>
<filter id="filter0_d_20_109" x="0" y="0" width="32" height="32" filterUnits="userSpaceOnUse" color-interpolation-filters="sRGB">
<feFlood flood-opacity="0" result="BackgroundImageFix"/>
<feColorMatrix in="SourceAlpha" type="matrix" values="0 0 0 0 0 0 0 0 0 0 0 0 0 0 0 0 0 0 127 0" result="hardAlpha"/>
<feOffset dy="4"/>
<feGaussianBlur stdDeviation="2"/>
<feComposite in2="hardAlpha" operator="out"/>
<feColorMatrix type="matrix" values="0 0 0 0 0 0 0 0 0 0 0 0 0 0 0 0 0 0 0.25 0"/>
<feBlend mode="normal" in2="BackgroundImageFix" result="effect1_dropShadow_20_109"/>
<feBlend mode="normal" in="SourceGraphic" in2="effect1_dropShadow_20_109" result="shape"/>
</filter>
</defs>
</svg>
